<svg width="30" height="25" viewBox="0 0 30 25" fill="none" xmlns="http://www.w3.org/2000/svg">
<path d="M15.9576 17.7489L16.8876 12.8003C14.1558 13.0217 11.1234 13.5709 8.5644 15.0427C5.7012 16.689 3.3852 19.5242 2.6694 24.4151C2.6172 24.7782 2.2122 25.0381 1.7658 24.9951C1.422 24.9619 1.1532 24.7577 1.0728 24.4996C0.419997 22.9061 0.0851975 21.4006 0.0149975 19.9874C-0.181203 16.1075 1.5984 12.9401 4.2258 10.5266C6.8274 8.1361 10.2654 6.48836 13.425 5.62394C14.6358 5.29165 15.8124 5.07322 16.8912 4.97109L15.9648 0.776981C15.8856 0.41831 16.179 0.0742976 16.6194 0.010284C16.8636 -0.024899 17.1018 0.0327621 17.2794 0.151994L29.7054 8.52263C30.051 8.75572 30.0996 9.174 29.8134 9.45498L29.721 9.53267L17.2974 18.3475C16.959 18.5879 16.4442 18.5586 16.149 18.283C16.0714 18.2106 16.014 18.1254 15.9809 18.0331C15.9479 17.9409 15.9399 17.8439 15.9576 17.7489Z" fill="#6FB5F5"/>
</svg>
